<mxfile host="app.diagrams.net" modified="2023-08-03T06:30:16.473Z" agent="Mozilla/5.0 (Windows NT 10.0; WOW64) AppleWebKit/537.36 (KHTML, like Gecko) Chrome/115.0.5790.110 Safari/537.36 NetHelper70" etag="nxtx2THzvi343vp_mbKR" version="21.3.4" type="github">
  <diagram name="페이지-1" id="VNfT97Ce2yCCv9rYX7J9">
    <mxGraphModel dx="1434" dy="800" grid="1" gridSize="10" guides="1" tooltips="1" connect="1" arrows="1" fold="1" page="1" pageScale="1" pageWidth="827" pageHeight="1169" math="0" shadow="0">
      <root>
        <mxCell id="0" />
        <mxCell id="1" parent="0" />
        <mxCell id="rwmAjz2A46AOd7jCJhRg-1" style="edgeStyle=orthogonalEdgeStyle;rounded=0;orthogonalLoop=1;jettySize=auto;html=1;" edge="1" parent="1" source="rwmAjz2A46AOd7jCJhRg-2" target="rwmAjz2A46AOd7jCJhRg-4">
          <mxGeometry relative="1" as="geometry" />
        </mxCell>
        <mxCell id="rwmAjz2A46AOd7jCJhRg-2" value="" style="shape=actor;whiteSpace=wrap;html=1;" vertex="1" parent="1">
          <mxGeometry x="40" y="400" width="100" height="100" as="geometry" />
        </mxCell>
        <mxCell id="rwmAjz2A46AOd7jCJhRg-3" style="edgeStyle=orthogonalEdgeStyle;rounded=0;orthogonalLoop=1;jettySize=auto;html=1;entryX=0;entryY=0.5;entryDx=0;entryDy=0;" edge="1" parent="1" source="rwmAjz2A46AOd7jCJhRg-4" target="rwmAjz2A46AOd7jCJhRg-9">
          <mxGeometry relative="1" as="geometry" />
        </mxCell>
        <mxCell id="rwmAjz2A46AOd7jCJhRg-4" value="Api Server" style="sketch=0;html=1;dashed=0;whitespace=wrap;fillColor=#2875E2;strokeColor=#ffffff;points=[[0.005,0.63,0],[0.1,0.2,0],[0.9,0.2,0],[0.5,0,0],[0.995,0.63,0],[0.72,0.99,0],[0.5,1,0],[0.28,0.99,0]];verticalLabelPosition=bottom;align=center;verticalAlign=top;shape=mxgraph.kubernetes.icon;prIcon=api;fontSize=16;" vertex="1" parent="1">
          <mxGeometry x="330" y="350" width="200" height="200" as="geometry" />
        </mxCell>
        <mxCell id="rwmAjz2A46AOd7jCJhRg-5" value="DB" style="strokeWidth=2;html=1;shape=mxgraph.flowchart.database;whiteSpace=wrap;" vertex="1" parent="1">
          <mxGeometry x="1070" y="710" width="100" height="100" as="geometry" />
        </mxCell>
        <mxCell id="rwmAjz2A46AOd7jCJhRg-6" value="DB" style="strokeWidth=2;html=1;shape=mxgraph.flowchart.database;whiteSpace=wrap;" vertex="1" parent="1">
          <mxGeometry x="1070" y="90" width="100" height="100" as="geometry" />
        </mxCell>
        <mxCell id="rwmAjz2A46AOd7jCJhRg-7" style="edgeStyle=orthogonalEdgeStyle;rounded=0;orthogonalLoop=1;jettySize=auto;html=1;entryX=0.5;entryY=1;entryDx=0;entryDy=0;" edge="1" parent="1" source="rwmAjz2A46AOd7jCJhRg-9" target="rwmAjz2A46AOd7jCJhRg-13">
          <mxGeometry relative="1" as="geometry" />
        </mxCell>
        <mxCell id="rwmAjz2A46AOd7jCJhRg-8" style="edgeStyle=orthogonalEdgeStyle;rounded=0;orthogonalLoop=1;jettySize=auto;html=1;entryX=0.5;entryY=0;entryDx=0;entryDy=0;" edge="1" parent="1" source="rwmAjz2A46AOd7jCJhRg-9" target="rwmAjz2A46AOd7jCJhRg-11">
          <mxGeometry relative="1" as="geometry" />
        </mxCell>
        <mxCell id="rwmAjz2A46AOd7jCJhRg-9" value="Orchestration Server" style="perimeter=ellipsePerimeter;html=1;align=center;shadow=0;dashed=0;spacingTop=3;image;image=img/lib/active_directory/generic_server.svg;fontSize=16;" vertex="1" parent="1">
          <mxGeometry x="720" y="350" width="200" height="200" as="geometry" />
        </mxCell>
        <mxCell id="rwmAjz2A46AOd7jCJhRg-10" style="edgeStyle=orthogonalEdgeStyle;rounded=0;orthogonalLoop=1;jettySize=auto;html=1;entryX=0;entryY=0.5;entryDx=0;entryDy=0;entryPerimeter=0;" edge="1" parent="1" source="rwmAjz2A46AOd7jCJhRg-11" target="rwmAjz2A46AOd7jCJhRg-5">
          <mxGeometry relative="1" as="geometry" />
        </mxCell>
        <mxCell id="rwmAjz2A46AOd7jCJhRg-11" value="결제 처리 서버" style="perimeter=ellipsePerimeter;html=1;align=center;shadow=0;dashed=0;spacingTop=3;image;image=img/lib/active_directory/generic_server.svg;fontSize=16;" vertex="1" parent="1">
          <mxGeometry x="720" y="660" width="200" height="200" as="geometry" />
        </mxCell>
        <mxCell id="rwmAjz2A46AOd7jCJhRg-12" style="edgeStyle=orthogonalEdgeStyle;rounded=0;orthogonalLoop=1;jettySize=auto;html=1;entryX=0;entryY=0.5;entryDx=0;entryDy=0;entryPerimeter=0;" edge="1" parent="1" source="rwmAjz2A46AOd7jCJhRg-13" target="rwmAjz2A46AOd7jCJhRg-6">
          <mxGeometry relative="1" as="geometry" />
        </mxCell>
        <mxCell id="rwmAjz2A46AOd7jCJhRg-13" value="주문 처리 서버" style="perimeter=ellipsePerimeter;html=1;align=center;shadow=0;dashed=0;spacingTop=3;image;image=img/lib/active_directory/generic_server.svg;fontSize=16;" vertex="1" parent="1">
          <mxGeometry x="720" y="40" width="200" height="200" as="geometry" />
        </mxCell>
      </root>
    </mxGraphModel>
  </diagram>
</mxfile>
